<svg id="Camada_1" data-name="Camada 1" xmlns="http://www.w3.org/2000/svg" viewBox="0 0 1177.19 448.7"><defs><style>.cls-1{fill:#dd66f2;stroke:#dd66f2;}.cls-1,.cls-2{stroke-miterlimit:10;}.cls-2{fill:#e739e4;stroke:#fff;}</style></defs><title>photo_2021-08-30_03-49-33</title><path class="cls-1" d="M864.71,440.8l-.06,251.42,182.55-.44v-251ZM988.94,644.17l-61.2,0L928,488.85l61.32.26Z" transform="translate(-367.33 -393.88)"/><path class="cls-1" d="M1544,442.26l-93.13.06.26,201.83h-61.41l.07-201.83-61.85.06.64,249.77,122.49-.13.19,102L1390,793.7l.06-53.68H1159.57l.07-95.55,59.87-.19.06,47.93h59.62l.32-95.81-60.06-.12.19-52.28,59.93.32L1279.45,441l-60,.19.19,53.49h-60.38l.44-86.94h-61.79v136.6l60.39-.26-.07,52.28-60.19.26.26,143.29-396.39-.06V488.72l61.28.07.07,97.34,58.59.13V440.91l-181.15-.25L640.57,740,468.74,740V590.15l119.94.64-.06-196.41H367.83v49.53h40.08l.77,295.92h-37v47.74l958.47.2-.07,54.25,180.71.07V788h31.85V740l-31.73-.19-.06-246.71,33.19-.12Zm-1075.08.25,61.15.19v99.83H468.62Z" transform="translate(-367.33 -393.88)"/><path class="cls-2" d="M911.66,936.94" transform="translate(-367.33 -393.88)"/><path class="cls-2" d="M633.87,400.26" transform="translate(-367.33 -393.88)"/></svg>